<svg xmlns="http://www.w3.org/2000/svg" width="1200" height="630" viewBox="0 0 1200 630"><rect width="1200" height="630" rx="24" fill="#f1f6f3"/><g font-family="Arial,sans-serif" fill="#173e2d"><text x="64" y="104" font-size="25" letter-spacing="5">ORBITDESK / SYNTHETIC WORKFLOW</text><text x="64" y="170" font-size="42">From task to a reviewable result</text><g font-size="23"><rect x="64" y="256" width="228" height="150" rx="16" fill="#fff"/><rect x="344" y="256" width="228" height="150" rx="16" fill="#fff"/><rect x="624" y="256" width="228" height="150" rx="16" fill="#d4e8dd"/><rect x="904" y="256" width="228" height="150" rx="16" fill="#fff"/><text x="100" y="316">01 / INPUT</text><text x="100" y="361">Sources &amp; task</text><text x="380" y="316">02 / DRAFT</text><text x="380" y="361">Evidence &amp; text</text><text x="650" y="316">03 / REVIEW</text><text x="650" y="361">Human decision</text><text x="930" y="316">04 / RESULT</text><text x="930" y="361">Track &amp; learn</text></g><path d="M298 332h35m-9-8 9 8-9 8m254-8h35m-9-8 9 8-9 8m254-8h35m-9-8 9 8-9 8" fill="none" stroke="#388461" stroke-width="3"/><text x="64" y="539" font-size="20" fill="#65796d">DEMO ONLY / No real company knowledge, publishing or measured results.</text></g></svg>
